<?xml version="1.0" encoding="UTF-8" standalone="no"?>
<!-- Created with Inkscape (http://www.inkscape.org/) -->

<svg
   width="51.003109mm"
   height="13.038642mm"
   viewBox="0 0 51.003109 13.038642"
   version="1.1"
   id="svg1"
   sodipodi:docname="readmeLogo.svg"
   inkscape:version="1.3 (0e150ed6c4, 2023-07-21)"
   xmlns:inkscape="http://www.inkscape.org/namespaces/inkscape"
   xmlns:sodipodi="http://sodipodi.sourceforge.net/DTD/sodipodi-0.dtd"
   xmlns="http://www.w3.org/2000/svg"
   xmlns:svg="http://www.w3.org/2000/svg">
  <sodipodi:namedview
     id="namedview1"
     pagecolor="#ffffff"
     bordercolor="#000000"
     borderopacity="0.25"
     inkscape:showpageshadow="2"
     inkscape:pageopacity="0.0"
     inkscape:pagecheckerboard="0"
     inkscape:deskcolor="#d1d1d1"
     inkscape:document-units="mm"
     inkscape:zoom="1.2553973"
     inkscape:cx="140.99122"
     inkscape:cy="-38.633187"
     inkscape:window-width="1366"
     inkscape:window-height="745"
     inkscape:window-x="-8"
     inkscape:window-y="-8"
     inkscape:window-maximized="1"
     inkscape:current-layer="layer1" />
  <defs
     id="defs1" />
  <g
     inkscape:label="طبقة 1"
     inkscape:groupmode="layer"
     id="layer1"
     transform="translate(22.281495,-7.6880686)">
    <path
       d="m -15.321908,20.557377 h -6.959586 V 8.4670006 h 6.959586 V 10.56673 h -4.402658 v 2.658528 h 4.097858 v 2.099729 h -4.097858 v 3.115727 h 4.402658 z m 5.3509154,0 H -12.494054 V 7.6880688 h 2.5230614 z m 9.58425406,0 H -7.6849908 v -1.490131 l 4.2841249,-5.825055 h -4.0301254 v -1.930396 h 6.89185306 v 1.64253 L -4.70473,18.626981 h 4.31799146 z M 5.7600653,11.142462 q 1.9134629,0 3.0310607,1.100665 1.1175978,1.083731 1.1175978,3.098793 v 1.219198 H 3.9482022 q 0.033867,1.066798 0.6265321,1.676397 0.6095988,0.609599 1.6763967,0.609599 0.8805316,0 1.6086635,-0.169333 0.7450652,-0.186267 1.523997,-0.558799 v 1.947329 Q 8.6895262,20.404977 7.944461,20.557377 7.1993958,20.72671 6.1325979,20.72671 q -1.3885306,0 -2.4553285,-0.507999 -1.0667979,-0.524932 -1.6763967,-1.557864 -0.6095988,-1.049864 -0.6095988,-2.658528 0,-1.608663 0.5418656,-2.692395 0.5587989,-1.083731 1.5409303,-1.625596 0.9821314,-0.541866 2.2859955,-0.541866 z m 0.016933,1.79493 q -0.7450652,0 -1.2191976,0.474132 -0.4741324,0.474133 -0.5587989,1.473197 H 7.5380618 Q 7.5211285,14.05499 7.0808627,13.496191 6.6575302,12.937392 5.7769986,12.937392 Z m 11.8533044,-1.79493 q 0.186266,0 0.440266,0.01693 0.253999,0.01693 0.406399,0.0508 l -0.186267,2.370662 q -0.135466,-0.03387 -0.355599,-0.0508 -0.220133,-0.03387 -0.389466,-0.03387 -0.643465,0 -1.236131,0.237066 -0.592665,0.220133 -0.965198,0.728132 -0.355599,0.507999 -0.355599,1.38853 v 4.707458 h -2.523062 v -9.245582 h 1.913463 l 0.372533,1.557864 h 0.118533 q 0.406399,-0.711199 1.117598,-1.219198 0.711198,-0.507999 1.64253,-0.507999 z m 11.091312,4.775191 q 0,2.302928 -1.219198,3.555993 -1.202264,1.253064 -3.28506,1.253064 -1.286931,0 -2.302929,-0.558799 -0.999064,-0.558799 -1.574797,-1.625597 -0.575732,-1.083731 -0.575732,-2.624661 0,-2.302929 1.202265,-3.53906 1.202264,-1.236131 3.301993,-1.236131 1.303864,0 2.302929,0.558799 0.999065,0.558799 1.574797,1.625597 0.575732,1.066798 0.575732,2.590795 z m -6.383854,0 q 0,1.371597 0.440266,2.082796 0.457199,0.694265 1.473197,0.694265 0.999064,0 1.43933,-0.694265 0.457199,-0.711199 0.457199,-2.082796 0,-1.371598 -0.457199,-2.04893 -0.440266,-0.694265 -1.456264,-0.694265 -0.999064,0 -1.456263,0.694265 -0.440266,0.677332 -0.440266,2.04893 z"
       id="text1"
       style="font-weight:bold;font-size:16.9333px;line-height:1.1;font-family:Sans;-inkscape-font-specification:'Sans Bold';text-align:end;letter-spacing:0.508px;word-spacing:0px;text-anchor:end;fill:#2196f3;fill-rule:evenodd;stroke-width:10.5833"
       aria-label="Elzero" />
  </g>
</svg>
